<?xml version="1.0" encoding="utf-8"?>
<!-- Generator: Adobe Illustrator 16.0.0, SVG Export Plug-In . SVG Version: 6.00 Build 0)  -->
<!DOCTYPE svg PUBLIC "-//W3C//DTD SVG 1.1//EN" "http://www.w3.org/Graphics/SVG/1.1/DTD/svg11.dtd">
<svg version="1.1" id="Capa_1" xmlns="http://www.w3.org/2000/svg" xmlns:xlink="http://www.w3.org/1999/xlink" x="0px" y="0px"
	 width="52px" height="52px" viewBox="0 0 52 52" enable-background="new 0 0 52 52" xml:space="preserve">
<g>
	<g>
		<path fill="#39484B" d="M44.521,31.692h-4.023c0.409,1.123,0.633,2.335,0.633,3.599v15.207c0,0.525-0.092,1.032-0.259,1.502h6.653
			c2.484,0,4.506-2.021,4.506-4.507v-8.29C52.03,35.063,48.661,31.692,44.521,31.692z"/>
	</g>
</g>
<g>
	<g>
		<path fill="#39484B" d="M10.9,35.291c0-1.264,0.224-2.476,0.634-3.599H7.511C3.37,31.692,0,35.063,0,39.203v8.29
			C0,49.979,2.022,52,4.507,52h6.653c-0.167-0.47-0.259-0.977-0.259-1.502V35.291z"/>
	</g>
</g>
<g>
	<g>
		<path fill="#39484B" d="M30.615,27.779h-9.2c-4.141,0-7.511,3.369-7.511,7.512v15.207c0,0.829,0.673,1.502,1.502,1.502h21.217
			c0.829,0,1.502-0.673,1.502-1.502V35.291C38.126,31.148,34.756,27.779,30.615,27.779z"/>
	</g>
</g>
<g>
	<g>
		<path fill="#39484B" d="M26.015,7.864c-4.981,0-9.033,4.052-9.033,9.033c0,3.378,1.865,6.329,4.619,7.878
			c1.306,0.735,2.812,1.155,4.414,1.155s3.108-0.419,4.415-1.155c2.754-1.549,4.618-4.5,4.618-7.878
			C35.048,11.917,30.996,7.864,26.015,7.864z"/>
	</g>
</g>
<g>
	<g>
		<path fill="#39484B" d="M10.154,16.283c-3.725,0-6.755,3.03-6.755,6.755s3.03,6.754,6.755,6.754c0.945,0,1.845-0.195,2.662-0.547
			c1.414-0.608,2.579-1.686,3.299-3.034c0.507-0.947,0.794-2.027,0.794-3.173C16.909,19.313,13.879,16.283,10.154,16.283z"/>
	</g>
</g>
<g>
	<g>
		<path fill="#39484B" d="M41.877,16.283c-3.726,0-6.756,3.03-6.756,6.755c0,1.146,0.288,2.227,0.795,3.173
			c0.721,1.35,1.886,2.426,3.299,3.034c0.817,0.352,1.717,0.547,2.662,0.547c3.725,0,6.756-3.029,6.756-6.754
			S45.602,16.283,41.877,16.283z"/>
	</g>
</g>
</svg>
