<?xml version="1.0" encoding="utf-8"?>
<!-- Generator: Adobe Illustrator 16.0.0, SVG Export Plug-In . SVG Version: 6.00 Build 0)  -->
<!DOCTYPE svg PUBLIC "-//W3C//DTD SVG 1.1//EN" "http://www.w3.org/Graphics/SVG/1.1/DTD/svg11.dtd">
<svg version="1.1" id="Capa_1" xmlns="http://www.w3.org/2000/svg" xmlns:xlink="http://www.w3.org/1999/xlink" x="0px" y="0px"
	 width="52px" height="52px" viewBox="0 0 52 52" enable-background="new 0 0 52 52" xml:space="preserve">
<path fill="#39484B" d="M24.012,34.474h3.973c0.553,0,1.001-0.434,1.02-0.987l0.828-24.016c0.01-0.279-0.092-0.544-0.285-0.745
	c-0.195-0.201-0.455-0.311-0.734-0.311h-5.629c-0.279,0-0.54,0.11-0.733,0.311c-0.194,0.201-0.296,0.466-0.286,0.745l0.828,24.016
	C23.011,34.04,23.458,34.474,24.012,34.474z"/>
<path fill="#39484B" d="M51.936,41.076H44.25c-0.497,0-0.9-0.402-0.9-0.899c0-0.498,0.403-0.902,0.9-0.902h5.824v-4.862
	c0-9.051-5.068-17.134-12.721-21.237l-1.955,13.681c-0.063,0.449-0.45,0.773-0.891,0.773c-0.042,0-0.085-0.003-0.128-0.009
	c-0.493-0.07-0.834-0.527-0.765-1.02l2.036-14.253c-1.296-0.566-2.657-1.025-4.068-1.358L30.805,33.55
	c-0.053,1.527-1.291,2.725-2.82,2.725h-3.973c-1.529,0-2.767-1.197-2.821-2.725l-0.778-22.561c-1.412,0.333-2.771,0.792-4.068,1.358
	l2.036,14.253c0.071,0.492-0.272,0.949-0.764,1.02c-0.043,0.006-0.086,0.009-0.129,0.009c-0.44,0-0.826-0.324-0.89-0.773
	l-1.955-13.681C6.99,17.278,1.922,25.361,1.922,34.412v4.862h32.722c0.497,0,0.901,0.404,0.901,0.902
	c0,0.497-0.404,0.899-0.901,0.899H0.061c-0.033,0-0.06,0.027-0.06,0.061v1.225c0,0.024,0.01,0.052,0.034,0.06
	C7.093,44.729,16.313,46,25.998,46s18.905-1.271,25.963-3.578c0.024-0.008,0.035-0.036,0.035-0.061l0,0v-1.225
	C51.996,41.104,51.969,41.076,51.936,41.076z"/>
<g>
	<g>
		<path fill="#39484B" d="M40.408,39.274h-1.921c-0.498,0-0.901,0.404-0.901,0.902c0,0.497,0.403,0.899,0.901,0.899h1.921
			c0.497,0,0.9-0.402,0.9-0.899C41.309,39.679,40.905,39.274,40.408,39.274z"/>
	</g>
</g>
<g>
	<g>
		<path fill="#39484B" d="M19.205,32.363l-0.275-1.922c-0.07-0.492-0.526-0.833-1.019-0.763c-0.492,0.069-0.835,0.525-0.765,1.018
			l0.275,1.923c0.064,0.448,0.449,0.772,0.891,0.772c0.042,0,0.085-0.003,0.128-0.009C18.933,33.313,19.275,32.856,19.205,32.363z"
			/>
	</g>
</g>
<g>
	<g>
		<path fill="#39484B" d="M34.085,29.679c-0.492-0.07-0.948,0.271-1.02,0.763l-0.273,1.922c-0.071,0.493,0.271,0.949,0.764,1.02
			c0.043,0.006,0.087,0.009,0.129,0.009c0.441,0,0.825-0.324,0.89-0.772l0.275-1.923C34.92,30.204,34.578,29.748,34.085,29.679z"/>
	</g>
</g>
</svg>
