<?xml version="1.0" encoding="utf-8"?>
<!-- Generator: Adobe Illustrator 16.0.0, SVG Export Plug-In . SVG Version: 6.00 Build 0)  -->
<!DOCTYPE svg PUBLIC "-//W3C//DTD SVG 1.1//EN" "http://www.w3.org/Graphics/SVG/1.1/DTD/svg11.dtd">
<svg version="1.1" id="Capa_1" xmlns="http://www.w3.org/2000/svg" xmlns:xlink="http://www.w3.org/1999/xlink" x="0px" y="0px"
	 width="23px" height="23px" viewBox="0 0 23 23" enable-background="new 0 0 23 23" xml:space="preserve">
<path fill="#D7B605" d="M21.312,0H1.656C0.742,0,0,0.742,0,1.656v19.655c0,0.916,0.742,1.657,1.656,1.657H12.27v-8.884H9.286v-3.476
	h2.984V8.051c0-2.967,1.812-4.582,4.457-4.582c1.269,0,2.357,0.095,2.676,0.137v3.102h-1.825c-1.439,0-1.719,0.684-1.719,1.689
	v2.213h3.443l-0.449,3.476h-2.994v8.884h5.453c0.916,0,1.657-0.741,1.657-1.657V1.656C22.969,0.742,22.228,0,21.312,0z"/>
</svg>
