<?xml version="1.0" encoding="utf-8"?>
<!-- Generator: Adobe Illustrator 16.0.0, SVG Export Plug-In . SVG Version: 6.00 Build 0)  -->
<!DOCTYPE svg PUBLIC "-//W3C//DTD SVG 1.1//EN" "http://www.w3.org/Graphics/SVG/1.1/DTD/svg11.dtd">
<svg version="1.1" id="Capa_1" xmlns="http://www.w3.org/2000/svg" xmlns:xlink="http://www.w3.org/1999/xlink" x="0px" y="0px"
	 width="23px" height="23px" viewBox="0 0 23 23" enable-background="new 0 0 23 23" xml:space="preserve">
<path fill="#D7B605" d="M16.635,7.615c-0.105-0.286-0.273-0.544-0.493-0.757c-0.212-0.219-0.471-0.387-0.757-0.493
	c-0.232-0.09-0.58-0.197-1.223-0.227c-0.695-0.032-0.904-0.038-2.662-0.038c-1.759,0-1.967,0.006-2.662,0.038
	c-0.642,0.03-0.991,0.137-1.223,0.227C7.329,6.471,7.07,6.639,6.858,6.858C6.64,7.071,6.471,7.329,6.365,7.615
	c-0.09,0.232-0.197,0.582-0.227,1.223C6.106,9.533,6.1,9.741,6.1,11.5s0.006,1.967,0.038,2.662c0.03,0.643,0.137,0.99,0.227,1.223
	c0.106,0.287,0.274,0.545,0.493,0.758c0.212,0.219,0.471,0.387,0.757,0.492c0.232,0.091,0.581,0.198,1.223,0.227
	C9.533,16.894,9.741,16.9,11.5,16.9c1.759,0,1.967-0.007,2.662-0.039c0.642-0.028,0.99-0.136,1.223-0.227
	c0.574-0.222,1.028-0.676,1.25-1.25c0.09-0.232,0.197-0.58,0.227-1.223c0.032-0.695,0.039-0.903,0.039-2.662
	s-0.007-1.967-0.039-2.662C16.832,8.197,16.725,7.848,16.635,7.615z M11.5,14.882c-1.868,0-3.382-1.514-3.382-3.382
	S9.632,8.118,11.5,8.118s3.382,1.514,3.382,3.382S13.368,14.882,11.5,14.882z M15.016,8.774c-0.436,0-0.791-0.354-0.791-0.791
	s0.355-0.791,0.791-0.791c0.438,0,0.79,0.354,0.79,0.791S15.453,8.774,15.016,8.774z"/>
<path fill="#D7B605" d="M13.695,11.5c0,1.212-0.983,2.195-2.195,2.195c-1.213,0-2.195-0.983-2.195-2.195
	c0-1.212,0.982-2.195,2.195-2.195C12.712,9.305,13.695,10.288,13.695,11.5z"/>
<path fill="#D7B605" d="M21.316,0.029H1.684c-0.914,0-1.655,0.741-1.655,1.655v19.632c0,0.914,0.741,1.654,1.655,1.654h19.632
	c0.914,0,1.654-0.74,1.654-1.654V1.684C22.971,0.77,22.23,0.029,21.316,0.029z M18.047,14.216c-0.032,0.701-0.144,1.18-0.307,1.599
	c-0.342,0.885-1.041,1.584-1.926,1.926c-0.419,0.163-0.897,0.274-1.599,0.307c-0.702,0.032-0.927,0.04-2.716,0.04
	s-2.013-0.008-2.715-0.04c-0.701-0.032-1.18-0.144-1.599-0.307c-0.439-0.165-0.838-0.424-1.167-0.76
	c-0.335-0.329-0.594-0.727-0.76-1.166c-0.163-0.419-0.274-0.897-0.306-1.599c-0.032-0.702-0.04-0.927-0.04-2.716
	s0.007-2.013,0.04-2.716c0.032-0.701,0.143-1.18,0.306-1.599c0.166-0.439,0.425-0.838,0.76-1.167
	c0.329-0.335,0.727-0.594,1.167-0.76c0.419-0.163,0.898-0.274,1.599-0.307C9.487,4.921,9.711,4.914,11.5,4.914
	s2.014,0.007,2.716,0.04c0.701,0.032,1.18,0.143,1.599,0.306c0.439,0.166,0.838,0.425,1.166,0.76
	c0.336,0.329,0.595,0.727,0.76,1.167c0.163,0.419,0.274,0.897,0.307,1.599c0.032,0.703,0.04,0.927,0.04,2.716
	S18.079,13.514,18.047,14.216z"/>
</svg>
