<?xml version="1.0" encoding="utf-8"?>
<!-- Generator: Adobe Illustrator 16.0.0, SVG Export Plug-In . SVG Version: 6.00 Build 0)  -->
<!DOCTYPE svg PUBLIC "-//W3C//DTD SVG 1.1//EN" "http://www.w3.org/Graphics/SVG/1.1/DTD/svg11.dtd">
<svg version="1.1" id="Capa_1" xmlns="http://www.w3.org/2000/svg" xmlns:xlink="http://www.w3.org/1999/xlink" x="0px" y="0px"
	 width="185px" height="40px" viewBox="0 0 185 40" enable-background="new 0 0 185 40" xml:space="preserve">
<g>
	<path fill="#39484B" d="M1.856,7.472c0.018-0.156,0.079-0.29,0.182-0.403S2.29,6.9,2.48,6.9h4.492c0.32,0,0.528,0.165,0.623,0.494
		l3.531,11.789l3.558-11.789C14.805,7.065,15.025,6.9,15.346,6.9h4.44c0.156,0,0.296,0.054,0.422,0.162
		c0.125,0.108,0.197,0.245,0.214,0.41c0.303,3.046,0.612,6.069,0.928,9.068c0.315,2.999,0.625,6.022,0.928,9.068v0.065
		c0,0.339-0.19,0.508-0.571,0.508h-3.674c-0.398,0-0.606-0.192-0.624-0.573l-1.129-10.035l-2.921,10.101
		c-0.018,0.088-0.08,0.191-0.188,0.312c-0.108,0.121-0.214,0.183-0.318,0.183H9.439c-0.104,0-0.214-0.059-0.332-0.176
		c-0.117-0.117-0.18-0.224-0.188-0.318L5.998,15.599L4.869,25.608c-0.018,0.381-0.229,0.573-0.636,0.573H0.559
		C0.186,26.182,0,25.989,0,25.608L1.856,7.472z"/>
	<path fill="#39484B" d="M30.198,7.407c0.008-0.052,0.037-0.108,0.084-0.168c0.047-0.061,0.106-0.117,0.175-0.169
		s0.143-0.093,0.221-0.123C30.757,6.916,30.83,6.9,30.899,6.9h3.324c0.147,0,0.273,0.046,0.376,0.136
		c0.104,0.091,0.182,0.171,0.234,0.24l0.325,0.74l6.816,17.581c0.069,0.171,0.056,0.313-0.039,0.421
		c-0.095,0.108-0.26,0.163-0.494,0.163h-3.726c-0.2,0-0.353-0.039-0.461-0.11c-0.108-0.075-0.193-0.199-0.254-0.37
		c-0.173-0.442-0.341-0.882-0.506-1.319c-0.165-0.437-0.329-0.876-0.493-1.316h-6.895c-0.165,0.44-0.331,0.88-0.5,1.316
		c-0.169,0.438-0.335,0.877-0.5,1.319c-0.113,0.32-0.333,0.48-0.662,0.48h-3.83c-0.165,0-0.301-0.045-0.409-0.131
		c-0.108-0.086-0.128-0.217-0.059-0.391L30.198,7.407z M32.562,12.964c-0.165,0.441-0.332,0.917-0.5,1.428
		c-0.169,0.511-0.336,1.026-0.5,1.545c-0.165,0.519-0.331,1.032-0.5,1.538s-0.335,0.979-0.5,1.421h3.986L32.562,12.964z"/>
	<path fill="#39484B" d="M56.515,8.303c0.147,0.087,0.255,0.2,0.324,0.337c0.069,0.139,0.057,0.303-0.039,0.493l-2.194,3.116
		c-0.095,0.147-0.197,0.232-0.305,0.253c-0.108,0.022-0.24-0.015-0.396-0.11c-0.424-0.32-0.891-0.567-1.402-0.74
		s-1.052-0.259-1.623-0.259c-0.709,0-1.363,0.134-1.96,0.402c-0.597,0.269-1.112,0.636-1.545,1.104
		c-0.433,0.467-0.771,1.012-1.013,1.636s-0.364,1.29-0.364,1.999c0,0.71,0.122,1.374,0.364,1.993c0.242,0.619,0.58,1.16,1.013,1.623
		c0.433,0.462,0.948,0.829,1.545,1.097c0.598,0.268,1.251,0.402,1.96,0.402c0.571,0,1.116-0.088,1.636-0.267
		c0.519-0.178,0.991-0.426,1.415-0.746c0.156-0.096,0.285-0.135,0.39-0.118c0.104,0.018,0.208,0.095,0.311,0.235l2.22,3.192
		c0.095,0.192,0.108,0.353,0.039,0.481c-0.07,0.13-0.177,0.238-0.324,0.324c-0.814,0.546-1.69,0.967-2.629,1.267
		c-0.939,0.298-1.928,0.447-2.966,0.447c-0.917,0-1.799-0.117-2.643-0.35c-0.844-0.234-1.634-0.568-2.369-1.001
		c-0.736-0.431-1.405-0.95-2.006-1.551c-0.602-0.602-1.119-1.269-1.551-2c-0.434-0.731-0.766-1.518-1-2.362
		s-0.351-1.725-0.351-2.643c0-0.917,0.117-1.798,0.351-2.642s0.566-1.636,1-2.376c0.432-0.74,0.95-1.413,1.551-2.019
		c0.601-0.606,1.27-1.123,2.006-1.552c0.735-0.428,1.525-0.761,2.369-1c0.844-0.238,1.725-0.357,2.643-0.357
		c1.038,0,2.019,0.146,2.94,0.435C54.833,7.34,55.701,7.758,56.515,8.303z"/>
	<path fill="#39484B" d="M59.085,7.498c0-0.182,0.047-0.327,0.143-0.436C59.323,6.955,59.466,6.9,59.656,6.9h8.387
		c0.892,0,1.727,0.167,2.506,0.5c0.779,0.333,1.459,0.786,2.039,1.356c0.58,0.572,1.036,1.24,1.37,2.006
		c0.333,0.766,0.5,1.583,0.5,2.447c0,0.589-0.08,1.149-0.24,1.682c-0.161,0.532-0.383,1.03-0.669,1.494
		c-0.286,0.462-0.625,0.882-1.019,1.259c-0.394,0.376-0.824,0.699-1.292,0.967l3.336,6.285c0.061,0.119,0.138,0.264,0.234,0.428
		c0.095,0.165,0.143,0.307,0.143,0.429c0,0.138-0.045,0.243-0.136,0.318c-0.091,0.071-0.214,0.11-0.37,0.11h-4.453
		c-0.148,0-0.28-0.045-0.396-0.131s-0.193-0.203-0.227-0.35l-3.155-5.935H64.11v5.855c0,0.372-0.2,0.56-0.598,0.56h-3.856
		c-0.173,0-0.312-0.045-0.415-0.138c-0.104-0.09-0.156-0.23-0.156-0.422V7.498z M69.251,13.262c0-0.259-0.048-0.52-0.143-0.778
		c-0.095-0.26-0.229-0.499-0.402-0.715c-0.173-0.216-0.381-0.397-0.623-0.545c-0.243-0.147-0.511-0.243-0.805-0.286
		c-0.243-0.017-0.47-0.032-0.682-0.045c-0.212-0.014-0.443-0.02-0.694-0.02H64.11v4.765h2.388c0.156,0,0.294-0.004,0.416-0.013
		c0.121-0.009,0.255-0.022,0.402-0.039c0.303-0.035,0.576-0.124,0.818-0.267c0.242-0.143,0.445-0.32,0.61-0.532
		s0.29-0.45,0.376-0.714C69.208,13.81,69.251,13.539,69.251,13.262z"/>
	<path fill="#39484B" d="M75.392,16.56c0-0.917,0.117-1.798,0.351-2.642s0.567-1.636,1-2.376c0.433-0.74,0.95-1.413,1.552-2.019
		c0.602-0.606,1.271-1.123,2.007-1.552c0.736-0.428,1.527-0.761,2.371-1c0.845-0.238,1.726-0.357,2.644-0.357
		c0.909,0,1.789,0.12,2.637,0.357c0.848,0.238,1.642,0.571,2.377,1c0.737,0.429,1.407,0.946,2.014,1.552
		c0.606,0.605,1.124,1.279,1.552,2.019c0.429,0.74,0.762,1.532,1.001,2.376c0.238,0.844,0.356,1.725,0.356,2.642
		c0,0.918-0.118,1.798-0.356,2.643c-0.239,0.844-0.572,1.631-1.001,2.362s-0.946,1.398-1.552,2c-0.606,0.601-1.277,1.12-2.014,1.551
		c-0.736,0.433-1.529,0.767-2.377,1.001c-0.849,0.232-1.728,0.35-2.637,0.35c-0.918,0-1.799-0.117-2.644-0.35
		c-0.844-0.234-1.635-0.568-2.371-1.001c-0.736-0.431-1.405-0.95-2.007-1.551c-0.602-0.602-1.12-1.269-1.552-2
		c-0.434-0.731-0.767-1.518-1-2.362S75.392,17.478,75.392,16.56z M80.416,16.547c0,0.718,0.121,1.389,0.363,2.012
		c0.242,0.623,0.582,1.167,1.018,1.629c0.437,0.463,0.953,0.827,1.549,1.091c0.596,0.264,1.253,0.396,1.971,0.396
		s1.376-0.132,1.978-0.396c0.601-0.264,1.119-0.627,1.556-1.091c0.436-0.462,0.775-1.006,1.017-1.629
		c0.242-0.624,0.364-1.294,0.364-2.012c0-0.71-0.122-1.378-0.364-2.006c-0.242-0.627-0.581-1.175-1.017-1.642
		c-0.437-0.468-0.956-0.835-1.556-1.104c-0.601-0.268-1.26-0.402-1.978-0.402s-1.375,0.134-1.971,0.402
		c-0.597,0.269-1.113,0.636-1.549,1.104c-0.437,0.467-0.776,1.015-1.018,1.642C80.537,15.169,80.416,15.837,80.416,16.547z"/>
</g>
<polygon fill="#0EA8A8" points="167.968,3.809 156.597,10.375 156.64,23.631 168.011,30.127 179.385,23.581 179.385,10.4 "/>
<polygon opacity="0.5" fill="#FFFFFF" points="156.554,23.581 168,30.12 167.957,16.99 156.554,10.4 "/>
<polygon opacity="0.8" fill="#FFFFFF" points="156.554,10.4 167.968,16.99 179.385,10.4 167.968,3.809 "/>
<path fill="#39484B" d="M182.913,26.306c0.102,0.059,0.214,0.085,0.324,0.085c0.232,0,0.456-0.121,0.58-0.336
	c0.18-0.319,0.067-0.724-0.251-0.906l-3.519-1.993v-3.488c0-0.367-0.298-0.664-0.663-0.664c-0.367,0-0.663,0.297-0.663,0.664v2.737
	l-1.544-0.875c-0.318-0.181-0.724-0.069-0.904,0.251c-0.18,0.317-0.069,0.724,0.25,0.903l1.559,0.884l-9.449,5.455v-4.228
	c4.009-0.338,7.167-3.709,7.167-7.805c0-1.188-0.266-2.316-0.741-3.326l3.663-2.115v2.72c0,0.367,0.296,0.664,0.663,0.664
	c0.365,0,0.663-0.297,0.663-0.664v-3.87c0-0.237-0.126-0.456-0.332-0.574l-11.083-6.399V0.664c0-0.367-0.297-0.664-0.665-0.664
	c-0.365,0-0.662,0.297-0.662,0.664v2.762l-11.083,6.399c-0.205,0.118-0.334,0.337-0.334,0.574v4.069
	c0,0.366,0.298,0.664,0.665,0.664c0.365,0,0.663-0.297,0.663-0.664V11.55l3.661,2.12c-0.476,1.009-0.739,2.134-0.739,3.32
	c0,4.096,3.158,7.467,7.167,7.805v4.228l-9.417-5.437l1.008-0.584c0.315-0.185,0.424-0.591,0.241-0.908
	c-0.186-0.316-0.591-0.424-0.909-0.241l-1.012,0.588v-3.127c0-0.366-0.298-0.663-0.663-0.663c-0.367,0-0.665,0.296-0.665,0.663
	v3.896l-2.936,1.703c-0.317,0.185-0.424,0.591-0.241,0.906c0.124,0.212,0.345,0.331,0.575,0.331c0.112,0,0.228-0.029,0.331-0.09
	l2.944-1.707l11.074,6.395c0.104,0.061,0.219,0.09,0.331,0.09c0.115,0,0.23-0.029,0.334-0.09l11.119-6.421L182.913,26.306z
	 M157.879,10.4l9.427-5.442v2.076c0,0.366,0.297,0.663,0.662,0.663c0.368,0,0.665-0.297,0.665-0.663V4.958l9.424,5.441l-3.663,2.116
	c-1.418-2.028-3.77-3.357-6.426-3.357c-2.657,0-5.009,1.332-6.427,3.363L157.879,10.4z M161.464,16.99
	c0-3.586,2.92-6.504,6.504-6.504c3.587,0,6.505,2.917,6.505,6.504c0,3.587-2.918,6.504-6.505,6.504
	C164.384,23.494,161.464,20.577,161.464,16.99z"/>
<path fill="#39484B" d="M184.295,16.326c-0.174,0-0.345,0.072-0.469,0.195c-0.122,0.123-0.194,0.294-0.194,0.469
	s0.07,0.346,0.194,0.47c0.124,0.123,0.295,0.194,0.469,0.194c0.176,0,0.348-0.071,0.469-0.194c0.124-0.124,0.196-0.295,0.196-0.47
	s-0.072-0.346-0.196-0.469C184.643,16.398,184.471,16.326,184.295,16.326z"/>
<path fill="#39484B" d="M182.272,17.46c0.124-0.124,0.194-0.295,0.194-0.47s-0.07-0.346-0.194-0.469s-0.293-0.195-0.469-0.195
	s-0.345,0.072-0.469,0.195s-0.194,0.294-0.194,0.469s0.07,0.346,0.194,0.47c0.124,0.123,0.293,0.194,0.469,0.194
	S182.151,17.583,182.272,17.46z"/>
<path fill="#39484B" d="M179.385,16.326c-0.176,0-0.345,0.072-0.469,0.195s-0.194,0.294-0.194,0.469s0.07,0.346,0.194,0.47
	c0.124,0.123,0.293,0.194,0.469,0.194c0.174,0,0.345-0.071,0.469-0.194c0.124-0.124,0.194-0.295,0.194-0.47s-0.07-0.346-0.194-0.469
	S179.559,16.326,179.385,16.326z"/>
<path fill="#39484B" d="M156.554,17.654c0.174,0,0.345-0.071,0.469-0.194c0.124-0.124,0.194-0.295,0.194-0.47
	s-0.07-0.346-0.194-0.469s-0.295-0.195-0.469-0.195s-0.345,0.072-0.469,0.195s-0.196,0.294-0.196,0.469s0.072,0.346,0.196,0.47
	C156.209,17.583,156.38,17.654,156.554,17.654z"/>
<path fill="#39484B" d="M153.591,16.521c-0.121,0.123-0.193,0.294-0.193,0.469s0.072,0.346,0.193,0.47
	c0.124,0.123,0.296,0.194,0.47,0.194c0.176,0,0.347-0.071,0.471-0.194c0.124-0.124,0.194-0.295,0.194-0.47s-0.07-0.346-0.194-0.469
	s-0.295-0.195-0.471-0.195C153.887,16.326,153.715,16.398,153.591,16.521z"/>
<path fill="#39484B" d="M151.642,17.654c0.176,0,0.347-0.071,0.469-0.194c0.124-0.124,0.196-0.295,0.196-0.47
	s-0.072-0.346-0.196-0.469c-0.122-0.123-0.293-0.195-0.469-0.195c-0.174,0-0.346,0.072-0.47,0.195
	c-0.121,0.123-0.193,0.294-0.193,0.469s0.072,0.346,0.193,0.47C151.296,17.583,151.468,17.654,151.642,17.654z"/>
<g>
	<path fill="#FFFFFF" d="M167.968,24.944c-4.386,0-7.954-3.568-7.954-7.954s3.568-7.954,7.954-7.954
		c4.387,0,7.955,3.568,7.955,7.954S172.354,24.944,167.968,24.944z"/>
	<path fill="#39484B" d="M167.968,9.537c4.11,0,7.455,3.344,7.455,7.454c0,4.11-3.345,7.454-7.455,7.454s-7.454-3.344-7.454-7.454
		C160.514,12.88,163.857,9.537,167.968,9.537 M167.968,8.537c-4.669,0-8.454,3.785-8.454,8.454s3.785,8.454,8.454,8.454
		s8.455-3.785,8.455-8.454S172.637,8.537,167.968,8.537L167.968,8.537z"/>
</g>
<g>
	<path fill="#39484B" d="M162.429,14.428c-0.059-0.037-0.088-0.098-0.088-0.185c0-0.065,0.019-0.115,0.054-0.152
		c0.232-0.232,0.523-0.443,0.875-0.635c0.35-0.191,0.742-0.287,1.177-0.287c0.629,0,1.135,0.15,1.516,0.45
		c0.379,0.301,0.631,0.646,0.753,1.037c0.065,0.174,0.099,0.373,0.099,0.597c0,0.571-0.231,1.085-0.694,1.542
		c-0.022,0.021-0.033,0.048-0.033,0.081s0.014,0.056,0.043,0.071c0.245,0.159,0.457,0.376,0.631,0.652
		c0.174,0.275,0.259,0.597,0.259,0.965c0,0.246-0.038,0.493-0.119,0.739c-0.151,0.492-0.448,0.868-0.891,1.128
		c-0.439,0.26-0.929,0.391-1.465,0.391c-0.312,0-0.606-0.044-0.889-0.131c-0.386-0.115-0.703-0.289-0.956-0.516
		c-0.252-0.228-0.455-0.458-0.608-0.689c-0.021-0.036-0.031-0.075-0.031-0.119c0-0.094,0.035-0.156,0.107-0.184l0.479-0.283
		c0.036-0.021,0.072-0.033,0.108-0.033c0.071,0,0.13,0.029,0.173,0.087c0.26,0.333,0.582,0.558,0.965,0.673
		c0.232,0.072,0.451,0.108,0.652,0.108c0.297,0,0.557-0.067,0.782-0.201c0.223-0.133,0.381-0.338,0.467-0.613
		c0.035-0.123,0.054-0.228,0.054-0.314c0-0.333-0.153-0.61-0.46-0.831c-0.309-0.221-0.696-0.338-1.168-0.352
		c-0.036,0-0.069-0.016-0.097-0.044c-0.029-0.028-0.048-0.062-0.057-0.098l-0.009-0.607c0-0.036,0.011-0.069,0.038-0.098
		c0.025-0.029,0.055-0.047,0.093-0.054c0.433-0.043,0.796-0.168,1.089-0.374c0.293-0.207,0.439-0.473,0.439-0.798
		c0-0.354-0.131-0.633-0.395-0.835c-0.266-0.203-0.57-0.305-0.918-0.305c-0.101,0-0.202,0.011-0.304,0.033
		c-0.131,0.029-0.289,0.098-0.472,0.207c-0.185,0.108-0.354,0.217-0.505,0.325c-0.036,0.022-0.072,0.033-0.11,0.033
		c-0.036,0-0.072-0.011-0.108-0.033L162.429,14.428z"/>
	<path fill="#39484B" d="M171.952,13.69c0.59,0.34,1.06,0.801,1.406,1.383c0.348,0.583,0.521,1.218,0.521,1.905
		c0,0.688-0.173,1.323-0.521,1.905c-0.347,0.584-0.816,1.044-1.406,1.384c-0.589,0.341-1.229,0.511-1.914,0.511h-2.151
		c-0.05,0-0.092-0.018-0.131-0.055c-0.036-0.036-0.054-0.079-0.054-0.128l-0.031-1.684v-3.864l0.031-1.682
		c0-0.051,0.018-0.094,0.054-0.13c0.039-0.036,0.081-0.054,0.131-0.054h0.663h1.488C170.723,13.18,171.363,13.35,171.952,13.69z
		 M171.42,19.388c0.424-0.252,0.76-0.593,1.005-1.021c0.246-0.427,0.368-0.889,0.368-1.39c0-0.499-0.124-0.961-0.375-1.389
		c-0.247-0.427-0.583-0.767-1.003-1.021c-0.419-0.253-0.879-0.38-1.377-0.38l-1.292-0.01l0.009,0.868v3.864l-0.009,0.869l1.292-0.01
		C170.536,19.769,170.998,19.642,171.42,19.388z"/>
</g>
<path fill="#D7B605" d="M105.184,9.577c-0.107,0.071-0.204,0.106-0.293,0.106c-0.088,0-0.185-0.035-0.291-0.106
	c-0.479-0.372-0.992-0.558-1.541-0.558c-0.567,0-1.059,0.204-1.474,0.611c-0.417,0.408-0.624,0.956-0.624,1.646v1.992
	c0,0.071,0.022,0.128,0.065,0.172c0.045,0.045,0.102,0.067,0.174,0.067l2.734,0.079c0.124,0,0.226,0.044,0.306,0.133
	s0.119,0.195,0.119,0.318v1.567c0,0.125-0.039,0.23-0.119,0.319s-0.182,0.132-0.306,0.132l-2.762,0.08
	c-0.053,0-0.102,0.022-0.146,0.067c-0.043,0.044-0.065,0.092-0.065,0.146l-0.08,9.666c0,0.124-0.044,0.229-0.132,0.317
	c-0.09,0.091-0.196,0.134-0.32,0.134h-1.566c-0.124,0-0.23-0.043-0.318-0.134c-0.089-0.088-0.133-0.193-0.133-0.317l-0.079-9.666
	c0-0.054-0.022-0.103-0.067-0.146c-0.044-0.045-0.093-0.067-0.146-0.067l-6.361-0.08c-0.125,0-0.231-0.044-0.319-0.132
	s-0.132-0.194-0.132-0.319v-1.567c0-0.124,0.044-0.229,0.132-0.318s0.194-0.133,0.319-0.133l6.361-0.079
	c0.053,0,0.102-0.022,0.146-0.067c0.045-0.044,0.067-0.093,0.067-0.146v-1.858c0-0.868,0.172-1.673,0.518-2.417
	c0.345-0.744,0.857-1.345,1.54-1.806c0.682-0.46,1.491-0.69,2.43-0.69c0.655,0,1.271,0.128,1.846,0.385
	c0.575,0.256,1.084,0.624,1.526,1.102c0.089,0.088,0.133,0.195,0.133,0.318c0,0.142-0.052,0.257-0.159,0.345L105.184,9.577z"/>
<path fill="#D7B605" d="M109.672,10.532c0,0.443-0.165,0.828-0.492,1.156c-0.329,0.327-0.721,0.491-1.184,0.491
	c-0.459,0-0.853-0.159-1.181-0.478c-0.326-0.318-0.491-0.708-0.491-1.168c0-0.46,0.165-0.854,0.491-1.182
	c0.328-0.327,0.722-0.491,1.181-0.491c0.463,0,0.854,0.164,1.184,0.491C109.507,9.679,109.672,10.072,109.672,10.532z
	 M108.768,13.347h-1.539c-0.124,0-0.235,0.044-0.333,0.133c-0.098,0.089-0.146,0.204-0.146,0.345l-0.08,4.249v3.666l0.08,4.275
	c0,0.124,0.048,0.229,0.146,0.317c0.098,0.091,0.209,0.134,0.333,0.134h1.539c0.124,0,0.23-0.043,0.318-0.134
	c0.09-0.088,0.133-0.193,0.133-0.317l0.105-4.275v-3.666l-0.105-4.249c0-0.142-0.043-0.256-0.133-0.345
	C108.998,13.392,108.892,13.347,108.768,13.347z"/>
<path fill="#D7B605" d="M111.929,16.349c0-1.629,0.016-3.33,0.052-5.1c0.036-1.771,0.063-3.673,0.079-4.204
	c0-0.142,0.059-0.266,0.173-0.372c0.115-0.106,0.244-0.16,0.386-0.16h1.407c0.142,0,0.266,0.053,0.372,0.16
	c0.105,0.106,0.159,0.23,0.159,0.372l0.025,7.975c0,0.036,0.018,0.062,0.054,0.08c0.036,0.018,0.07,0.009,0.106-0.027
	c0.372-0.495,0.924-0.907,1.659-1.235c0.735-0.327,1.447-0.491,2.14-0.491c1.186,0,2.279,0.297,3.277,0.89
	c1.001,0.593,1.793,1.39,2.379,2.389c0.584,1.001,0.875,2.094,0.875,3.28s-0.291,2.284-0.875,3.293
	c-0.586,1.008-1.378,1.805-2.379,2.391c-0.998,0.584-2.092,0.875-3.277,0.875c-1.152,0-2.219-0.277-3.201-0.837
	c-0.983-0.557-1.771-1.31-2.363-2.257s-0.917-1.996-0.97-3.146C111.953,19.27,111.929,17.977,111.929,16.349z M116.575,16.521
	c-0.603,0.345-1.076,0.819-1.421,1.421c-0.345,0.602-0.519,1.257-0.519,1.965c0,0.708,0.176,1.359,0.532,1.953
	c0.354,0.593,0.827,1.065,1.421,1.42c0.593,0.354,1.242,0.531,1.952,0.531c0.689,0,1.33-0.178,1.925-0.531
	c0.593-0.354,1.066-0.827,1.421-1.42c0.354-0.594,0.529-1.245,0.529-1.953c0-0.708-0.176-1.358-0.529-1.953
	c-0.354-0.593-0.828-1.066-1.421-1.42c-0.595-0.354-1.244-0.531-1.952-0.531C117.824,16.003,117.177,16.175,116.575,16.521z"/>
<path fill="#D7B605" d="M134.979,15.339c0,0,0,0.054,0,0.16c0,0.124-0.055,0.239-0.16,0.345l-0.983,0.902
	c-0.069,0.054-0.157,0.082-0.264,0.082c-0.142,0-0.25-0.036-0.32-0.107c-0.529-0.371-1.053-0.557-1.566-0.557
	c-0.603,0-1.111,0.211-1.526,0.637c-0.417,0.424-0.625,0.965-0.625,1.62l-0.026,7.488c0,0.16-0.052,0.293-0.158,0.399
	c-0.108,0.105-0.239,0.158-0.398,0.158h-1.328c-0.16,0-0.293-0.053-0.399-0.158c-0.105-0.106-0.157-0.239-0.157-0.399l0.13-8.923
	c0-0.566-0.029-1.048-0.092-1.447c-0.062-0.398-0.102-0.642-0.12-0.73c-0.033-0.106-0.069-0.283-0.105-0.531v-0.08
	c0-0.107,0.04-0.199,0.119-0.279c0.081-0.08,0.181-0.12,0.307-0.12l1.698-0.292c0.09,0,0.178,0.031,0.266,0.093
	s0.151,0.138,0.188,0.226c0.033,0.089,0.061,0.186,0.078,0.292c0.584-0.283,1.223-0.425,1.912-0.425
	c0.638,0,1.249,0.124,1.833,0.372c0.584,0.249,1.107,0.611,1.567,1.089C134.934,15.277,134.979,15.339,134.979,15.339z"/>
<path fill="#D7B605" d="M148.814,22.323c0,0.886-0.019,1.664-0.055,2.336c-0.036,0.675-0.063,1.099-0.079,1.276
	c0,0.142-0.054,0.266-0.16,0.372c-0.105,0.105-0.238,0.158-0.398,0.158h-1.407c-0.124,0-0.238-0.053-0.345-0.158
	c-0.105-0.106-0.169-0.23-0.185-0.372l-0.027-1.168c0-0.036-0.014-0.063-0.041-0.081c-0.026-0.018-0.056-0.009-0.092,0.027
	c-0.354,0.496-0.904,0.91-1.646,1.249c-0.744,0.336-1.461,0.503-2.151,0.503c-1.188,0-2.286-0.291-3.294-0.875
	c-1.01-0.586-1.806-1.383-2.39-2.391c-0.586-1.01-0.877-2.107-0.877-3.293s0.291-2.279,0.877-3.28c0.584-1,1.38-1.796,2.39-2.389
	c1.008-0.593,2.106-0.89,3.294-0.89c1.15,0,2.212,0.279,3.186,0.837c0.975,0.558,1.757,1.311,2.35,2.257s0.917,1.995,0.969,3.147
	C148.787,20.562,148.814,21.474,148.814,22.323z M144.179,23.279c0.593-0.354,1.062-0.832,1.409-1.434
	c0.345-0.603,0.517-1.257,0.517-1.966c0-0.708-0.176-1.357-0.53-1.951c-0.356-0.593-0.829-1.063-1.42-1.408
	c-0.596-0.345-1.245-0.518-1.953-0.518c-0.691,0-1.332,0.177-1.925,0.531c-0.596,0.354-1.068,0.828-1.421,1.42
	c-0.355,0.594-0.531,1.245-0.531,1.953c0,0.708,0.176,1.359,0.531,1.953c0.353,0.593,0.825,1.065,1.421,1.42
	c0.593,0.354,1.242,0.531,1.952,0.531C142.935,23.811,143.586,23.633,144.179,23.279z"/>
<g>
	<path fill="#39484B" d="M5.569,38.067c0,0.838-0.604,1.83-2.058,1.83c-1.18,0-1.906-0.717-2.104-1.445l0.321-0.104
		c0.142,0.566,0.708,1.209,1.784,1.209c1.019,0,1.708-0.604,1.708-1.49c0-1.03-0.755-1.171-1.614-1.437
		C2.7,36.358,1.672,36.065,1.672,34.82c0-1.01,0.84-1.765,1.812-1.765c0.878,0,1.539,0.435,1.792,1.235l-0.33,0.076
		c-0.208-0.643-0.746-0.98-1.463-0.98C2.7,33.387,2.011,34,2.011,34.82c0,0.999,0.793,1.218,1.689,1.49
		C4.569,36.574,5.569,36.793,5.569,38.067z"/>
	<path fill="#39484B" d="M16.829,36.471c0,1.907-1.396,3.427-3.256,3.427c-1.859,0-3.256-1.52-3.256-3.427
		c0-1.905,1.397-3.415,3.256-3.415C15.432,33.056,16.829,34.565,16.829,36.471z M16.489,36.471c0-1.718-1.246-3.084-2.916-3.084
		s-2.916,1.366-2.916,3.084s1.246,3.087,2.916,3.087S16.489,38.188,16.489,36.471z"/>
	<path fill="#39484B" d="M25.417,39.444v0.329h-3.492v-6.605h0.34v6.276H25.417z"/>
	<path fill="#39484B" d="M35.101,33.168v4.228c0,1.539-0.953,2.502-2.34,2.502c-1.397,0-2.341-0.963-2.341-2.502v-4.228h0.34v4.228
		c0,1.312,0.774,2.162,2.001,2.162c1.226,0,2-0.851,2-2.162v-4.228H35.101z"/>
	<path fill="#39484B" d="M45.757,38.462l0.283,0.18c-0.613,0.765-1.538,1.256-2.585,1.256c-1.859,0-3.256-1.52-3.256-3.427
		c0-1.905,1.396-3.415,3.256-3.415c1.047,0,1.972,0.479,2.585,1.244l-0.283,0.189c-0.547-0.679-1.378-1.103-2.302-1.103
		c-1.67,0-2.916,1.366-2.916,3.084s1.246,3.087,2.916,3.087C44.379,39.558,45.21,39.134,45.757,38.462z"/>
	<path fill="#39484B" d="M51.374,33.168v6.605h-0.33v-6.605H51.374z"/>
	<path fill="#39484B" d="M62.982,36.471c0,1.907-1.397,3.427-3.256,3.427c-1.858,0-3.255-1.52-3.255-3.427
		c0-1.905,1.397-3.415,3.255-3.415C61.585,33.056,62.982,34.565,62.982,36.471z M62.642,36.471c0-1.718-1.246-3.084-2.917-3.084
		c-1.67,0-2.916,1.366-2.916,3.084s1.246,3.087,2.916,3.087C61.396,39.558,62.642,38.188,62.642,36.471z M60.604,31.073
		l-0.774,1.235h-0.236l0.576-1.235H60.604z"/>
	<path fill="#39484B" d="M72.939,33.168v6.605H72.6l-4.181-6.011v6.011h-0.34v-6.605h0.34l4.181,6.021v-6.021H72.939z"/>
	<path fill="#39484B" d="M88.201,39.444v0.329h-3.558v-6.605h3.473v0.341h-3.143v2.681h2.925v0.338h-2.925v2.917H88.201z"/>
	<path fill="#39484B" d="M98.253,33.168v6.605h-0.34l-4.18-6.011v6.011h-0.341v-6.605h0.341l4.18,6.021v-6.021H98.253z"/>
	<path fill="#39484B" d="M115.137,38.462l0.284,0.18c-0.613,0.765-1.538,1.256-2.586,1.256c-1.86,0-3.256-1.52-3.256-3.427
		c0-1.905,1.396-3.415,3.256-3.415c1.048,0,1.973,0.479,2.586,1.244l-0.284,0.189c-0.546-0.679-1.378-1.103-2.302-1.103
		c-1.671,0-2.915,1.366-2.915,3.084s1.244,3.087,2.915,3.087C113.759,39.558,114.591,39.134,115.137,38.462z"/>
	<path fill="#39484B" d="M126.463,36.471c0,1.907-1.396,3.427-3.255,3.427c-1.86,0-3.256-1.52-3.256-3.427
		c0-1.905,1.396-3.415,3.256-3.415C125.067,33.056,126.463,34.565,126.463,36.471z M126.123,36.471c0-1.718-1.245-3.084-2.915-3.084
		c-1.671,0-2.915,1.366-2.915,3.084s1.244,3.087,2.915,3.087C124.878,39.558,126.123,38.188,126.123,36.471z"/>
	<path fill="#39484B" d="M136.421,33.168v6.605h-0.34l-4.181-6.011v6.011h-0.34v-6.605h0.34l4.181,6.021v-6.021H136.421z"/>
	<path fill="#39484B" d="M147.076,38.462l0.283,0.18c-0.612,0.765-1.537,1.256-2.585,1.256c-1.86,0-3.256-1.52-3.256-3.427
		c0-1.905,1.396-3.415,3.256-3.415c1.048,0,1.973,0.479,2.585,1.244l-0.283,0.189c-0.548-0.679-1.378-1.103-2.302-1.103
		c-1.671,0-2.915,1.366-2.915,3.084s1.244,3.087,2.915,3.087C145.698,39.558,146.528,39.134,147.076,38.462z"/>
	<path fill="#39484B" d="M156.326,39.773l-1.783-2.877c-0.151,0.019-0.303,0.027-0.463,0.027h-1.377v2.85h-0.341v-6.605h1.718
		c1.443,0,2.275,0.737,2.275,1.878c0,0.906-0.521,1.558-1.445,1.783l1.821,2.944H156.326z M154.08,36.595
		c1.321,0,1.935-0.651,1.935-1.549c0-0.886-0.613-1.537-1.935-1.537h-1.377v3.086H154.08z"/>
	<path fill="#39484B" d="M165.197,39.444v0.329h-3.558v-6.605h3.475v0.341h-3.144v2.681h2.925v0.338h-2.925v2.917H165.197z"/>
	<path fill="#39484B" d="M174.06,33.509h-1.811v6.265h-0.331v-6.265h-1.811v-0.341h3.952V33.509z"/>
	<path fill="#39484B" d="M185.01,36.471c0,1.907-1.397,3.427-3.256,3.427c-1.859,0-3.258-1.52-3.258-3.427
		c0-1.905,1.398-3.415,3.258-3.415C183.612,33.056,185.01,34.565,185.01,36.471z M184.669,36.471c0-1.718-1.246-3.084-2.915-3.084
		c-1.67,0-2.917,1.366-2.917,3.084s1.247,3.087,2.917,3.087C183.423,39.558,184.669,38.188,184.669,36.471z"/>
</g>
</svg>
