<?xml version="1.0" encoding="utf-8"?>
<!-- Generator: Adobe Illustrator 16.0.0, SVG Export Plug-In . SVG Version: 6.00 Build 0)  -->
<!DOCTYPE svg PUBLIC "-//W3C//DTD SVG 1.1//EN" "http://www.w3.org/Graphics/SVG/1.1/DTD/svg11.dtd">
<svg version="1.1" id="Capa_1" xmlns="http://www.w3.org/2000/svg" xmlns:xlink="http://www.w3.org/1999/xlink" x="0px" y="0px"
	 width="52px" height="52px" viewBox="0 0 52 52" enable-background="new 0 0 52 52" xml:space="preserve">
<g>
	<g>
		<g>
			<circle fill="#39484B" cx="18.447" cy="44.904" r="6.313"/>
			<path fill="#39484B" d="M38.672,38.53L38.672,38.53c-3.504-0.345-6.623,2.216-6.968,5.72c-0.346,3.502,2.216,6.622,5.718,6.967
				c0.416,0.041,0.835,0.041,1.25,0c3.503-0.345,6.063-3.465,5.718-6.967C44.092,41.223,41.698,38.828,38.672,38.53z"/>
			<path fill="#39484B" d="M51.664,14.506c-0.313-0.469-0.845-0.747-1.409-0.735h-6.986v-0.123c0-7.413-6.009-13.422-13.422-13.422
				c-7.412,0-13.421,6.008-13.422,13.421c0,0,0,0.001,0,0.001v0.123h-5.209L9.438,5.682c-0.197-0.823-0.931-1.405-1.777-1.41H0
				v3.677h6.19l5.699,26.169c0.15,0.86,0.904,1.484,1.777,1.471h32.052c0.848-0.005,1.58-0.587,1.778-1.41l4.534-18.14
				C52.164,15.499,52.027,14.927,51.664,14.506z M29.846,23.393c-5.381,0-9.744-4.362-9.744-9.744c0-5.381,4.362-9.744,9.744-9.744
				c5.383,0,9.745,4.363,9.745,9.744C39.557,19.016,35.214,23.359,29.846,23.393z"/>
			<path fill="#39484B" d="M28.376,13.833L25.005,10.4l-2.636,2.574l4.658,4.719c0.339,0.346,0.802,0.545,1.287,0.552
				c0.479,0.023,0.944-0.154,1.287-0.49l7.722-7.293l-2.513-2.697L28.376,13.833z"/>
		</g>
	</g>
</g>
</svg>
