<?xml version="1.0" encoding="utf-8"?>
<!-- Generator: Adobe Illustrator 16.0.0, SVG Export Plug-In . SVG Version: 6.00 Build 0)  -->
<!DOCTYPE svg PUBLIC "-//W3C//DTD SVG 1.1//EN" "http://www.w3.org/Graphics/SVG/1.1/DTD/svg11.dtd">
<svg version="1.1" id="Capa_1" xmlns="http://www.w3.org/2000/svg" xmlns:xlink="http://www.w3.org/1999/xlink" x="0px" y="0px"
	 width="52px" height="52px" viewBox="0 0 52 52" enable-background="new 0 0 52 52" xml:space="preserve">
<g>
	<g>
		<path fill="#39484B" d="M13.823,18.267c-4.204,0-7.725,3.42-7.725,7.624s3.521,7.622,7.725,7.622c4.203,0,7.725-3.419,7.725-7.622
			S18.026,18.267,13.823,18.267z"/>
	</g>
</g>
<g>
	<g>
		<path fill="#39484B" d="M38.318-0.027c-7.567,0-13.722,6.155-13.722,13.721c0,2.36,0.603,4.664,1.748,6.707l-1.669,5.009
			c-0.178,0.528-0.051,1.108,0.327,1.518c0.388,0.42,0.967,0.576,1.487,0.443l5.662-1.415c1.903,0.958,4.021,1.461,6.166,1.461
			c7.565,0,13.721-6.155,13.721-13.722C52.039,6.128,45.884-0.027,38.318-0.027z M38.318,21.317c-0.843,0-1.526-0.683-1.526-1.525
			s0.684-1.525,1.526-1.525c0.84,0,1.523,0.683,1.523,1.525S39.158,21.317,38.318,21.317z M40.445,14.695
			c-0.36,0.19-0.604,0.679-0.604,1.216c0,0.843-0.682,1.525-1.523,1.525c-0.843,0-1.526-0.682-1.526-1.525
			c0-1.691,0.856-3.19,2.233-3.914c0.504-0.265,0.816-0.783,0.816-1.352c0-0.842-0.684-1.525-1.523-1.525
			c-0.843,0-1.526,0.683-1.526,1.525c0,0.843-0.682,1.525-1.523,1.525c-0.843,0-1.524-0.682-1.524-1.525
			c0-2.522,2.052-4.574,4.574-4.574c2.521,0,4.573,2.051,4.573,4.574C42.892,12.349,41.954,13.901,40.445,14.695z"/>
	</g>
</g>
<g>
	<g>
		<path fill="#39484B" d="M21.823,33.002c-1.954,2.169-4.857,3.561-8,3.561c-3.143,0-6.045-1.392-8-3.561
			C2.312,35.489,0,39.565,0,44.186v6.302c0,0.842,0.682,1.524,1.524,1.524h24.597c0.843,0,1.523-0.683,1.523-1.524v-6.302
			C27.645,39.565,25.334,35.489,21.823,33.002z"/>
	</g>
</g>
</svg>
