<?xml version="1.0" encoding="utf-8"?>
<!-- Generator: Adobe Illustrator 16.0.0, SVG Export Plug-In . SVG Version: 6.00 Build 0)  -->
<!DOCTYPE svg PUBLIC "-//W3C//DTD SVG 1.1//EN" "http://www.w3.org/Graphics/SVG/1.1/DTD/svg11.dtd">
<svg version="1.1" id="Capa_1" xmlns="http://www.w3.org/2000/svg" xmlns:xlink="http://www.w3.org/1999/xlink" x="0px" y="0px"
	 width="23px" height="23px" viewBox="0 0 23 23" enable-background="new 0 0 23 23" xml:space="preserve">
<path fill="#D7B605" d="M12.745,10.654l-1.577-0.351c-0.6-0.136-1.291-0.316-1.291-0.882c0-0.567,0.484-0.963,1.359-0.963
	c1.763,0,1.602,1.211,2.477,1.211c0.46,0,0.863-0.271,0.863-0.736c0-1.086-1.738-1.902-3.213-1.902
	c-1.601,0-3.306,0.681-3.306,2.492c0,0.872,0.312,1.8,2.027,2.231l2.132,0.532c0.646,0.158,0.806,0.521,0.806,0.849
	c0,0.545-0.541,1.075-1.519,1.075c-1.914,0-1.648-1.472-2.674-1.472c-0.46,0-0.795,0.316-0.795,0.77
	c0,0.884,1.073,2.062,3.469,2.062c2.279,0,3.409-1.099,3.409-2.571C14.911,12.048,14.473,11.038,12.745,10.654z"/>
<path fill="#D7B605" d="M21.287,0H1.654C0.741,0,0,0.741,0,1.654v19.633c0,0.914,0.741,1.654,1.654,1.654h19.633
	c0.914,0,1.654-0.74,1.654-1.654V1.654C22.941,0.741,22.201,0,21.287,0z M17.444,17.426c-0.755,0.755-1.759,1.17-2.823,1.17
	c-0.69,0-1.368-0.18-1.964-0.519c-0.389,0.068-0.786,0.106-1.183,0.106c-0.91,0-1.794-0.18-2.625-0.532
	c-0.804-0.338-1.525-0.824-2.144-1.444c-0.619-0.618-1.106-1.34-1.445-2.145c-0.353-0.831-0.531-1.715-0.531-2.625
	c0-0.39,0.036-0.781,0.103-1.164C4.504,9.686,4.329,9.019,4.329,8.339c0-1.067,0.416-2.068,1.169-2.823
	c0.754-0.754,1.757-1.17,2.824-1.17c0.653,0,1.299,0.163,1.873,0.468c0,0,0.002,0,0.003,0c0.418-0.081,0.848-0.121,1.277-0.121
	c0.91,0,1.793,0.178,2.625,0.53c0.802,0.339,1.525,0.825,2.144,1.445c0.62,0.619,1.106,1.34,1.445,2.144
	c0.353,0.832,0.53,1.714,0.53,2.625c0,0.411-0.038,0.822-0.111,1.222c0.33,0.591,0.506,1.262,0.506,1.943
	C18.613,15.67,18.196,16.672,17.444,17.426z"/>
</svg>
