<?xml version="1.0" encoding="utf-8"?>
<!-- Generator: Adobe Illustrator 16.0.0, SVG Export Plug-In . SVG Version: 6.00 Build 0)  -->
<!DOCTYPE svg PUBLIC "-//W3C//DTD SVG 1.1//EN" "http://www.w3.org/Graphics/SVG/1.1/DTD/svg11.dtd">
<svg version="1.1" id="Capa_1" xmlns="http://www.w3.org/2000/svg" xmlns:xlink="http://www.w3.org/1999/xlink" x="0px" y="0px"
	 width="23px" height="23px" viewBox="0 0 23 23" enable-background="new 0 0 23 23" xml:space="preserve">
<path fill="#D7B605" d="M21.319,0H1.657C0.742,0,0,0.742,0,1.657v19.662c0,0.915,0.742,1.657,1.657,1.657h19.662
	c0.915,0,1.657-0.742,1.657-1.657V1.657C22.977,0.742,22.234,0,21.319,0z M17.244,8.793v1.554c-0.733,0-1.445-0.143-2.115-0.426
	c-0.433-0.183-0.835-0.417-1.202-0.701l0.011,4.781c-0.005,1.076-0.43,2.089-1.201,2.851c-0.627,0.62-1.422,1.015-2.284,1.142
	c-0.202,0.03-0.408,0.046-0.617,0.046c-0.923,0-1.797-0.299-2.514-0.85c-0.135-0.104-0.264-0.217-0.386-0.338
	c-0.836-0.826-1.266-1.945-1.194-3.122c0.056-0.896,0.414-1.751,1.012-2.421C7.545,10.422,8.652,9.93,9.835,9.93
	c0.209,0,0.415,0.016,0.617,0.045v0.575v1.598c-0.191-0.063-0.396-0.099-0.61-0.099c-1.081,0-1.957,0.883-1.94,1.965
	c0.01,0.692,0.388,1.299,0.946,1.632c0.262,0.156,0.563,0.254,0.886,0.271c0.252,0.014,0.494-0.021,0.718-0.096
	c0.773-0.255,1.331-0.981,1.331-1.837l0.002-3.202V4.938h2.139c0.003,0.212,0.023,0.419,0.064,0.62
	c0.161,0.811,0.618,1.515,1.254,1.995c0.555,0.418,1.246,0.666,1.995,0.666h0.007V8.793L17.244,8.793z"/>
</svg>
