<?xml version="1.0" encoding="utf-8"?>
<!-- Generator: Adobe Illustrator 16.0.0, SVG Export Plug-In . SVG Version: 6.00 Build 0)  -->
<!DOCTYPE svg PUBLIC "-//W3C//DTD SVG 1.1//EN" "http://www.w3.org/Graphics/SVG/1.1/DTD/svg11.dtd">
<svg version="1.1" id="Capa_1" xmlns="http://www.w3.org/2000/svg" xmlns:xlink="http://www.w3.org/1999/xlink" x="0px" y="0px"
	 width="23px" height="23px" viewBox="0 0 23 23" enable-background="new 0 0 23 23" xml:space="preserve">
<path fill="#D7B605" d="M21.319,0.026H1.681c-0.914,0-1.655,0.741-1.655,1.655v19.638c0,0.914,0.741,1.655,1.655,1.655h19.638
	c0.914,0,1.655-0.741,1.655-1.655V1.681C22.975,0.767,22.233,0.026,21.319,0.026z M16.739,8.972
	c0.005,0.114,0.008,0.227,0.008,0.341c0,3.479-2.649,7.493-7.494,7.493l0,0l0,0c-1.487,0-2.872-0.437-4.037-1.184
	c0.206,0.025,0.416,0.037,0.628,0.037c1.234,0,2.37-0.42,3.272-1.128c-1.153-0.021-2.125-0.783-2.461-1.829
	c0.16,0.031,0.325,0.048,0.495,0.048c0.24,0,0.474-0.032,0.694-0.092c-1.205-0.242-2.112-1.307-2.112-2.583c0-0.012,0-0.022,0-0.034
	c0.355,0.198,0.761,0.316,1.193,0.33C6.218,9.899,5.753,9.093,5.753,8.18c0-0.483,0.131-0.935,0.356-1.324
	c1.299,1.594,3.24,2.642,5.429,2.752c-0.045-0.193-0.068-0.394-0.068-0.601c0-1.454,1.18-2.633,2.634-2.633
	c0.758,0,1.442,0.32,1.922,0.833c0.601-0.119,1.164-0.338,1.673-0.64c-0.197,0.614-0.614,1.13-1.158,1.457
	c0.533-0.064,1.041-0.206,1.513-0.416C17.7,8.137,17.253,8.601,16.739,8.972z"/>
</svg>
