<?xml version="1.0" encoding="utf-8"?>
<!-- Generator: Adobe Illustrator 16.0.0, SVG Export Plug-In . SVG Version: 6.00 Build 0)  -->
<!DOCTYPE svg PUBLIC "-//W3C//DTD SVG 1.1//EN" "http://www.w3.org/Graphics/SVG/1.1/DTD/svg11.dtd">
<svg version="1.1" id="Capa_1" xmlns="http://www.w3.org/2000/svg" xmlns:xlink="http://www.w3.org/1999/xlink" x="0px" y="0px"
	 width="23px" height="23px" viewBox="0 0 23 23" enable-background="new 0 0 23 23" xml:space="preserve">
<path fill="#D7B605" d="M11.711,5.575c-3.146,0-5.705,2.558-5.707,5.701c0,1.078,0.302,2.128,0.872,3.034l0.136,0.218L6.436,16.63
	l2.159-0.566l0.208,0.124c0.876,0.52,1.879,0.794,2.903,0.795h0.002c3.144,0,5.702-2.558,5.703-5.702
	c0.002-1.525-0.592-2.956-1.669-4.033C14.666,6.17,13.233,5.576,11.711,5.575z M15.065,13.727c-0.144,0.401-0.828,0.767-1.157,0.815
	c-0.296,0.044-0.669,0.063-1.08-0.067c-0.249-0.079-0.568-0.186-0.978-0.36c-1.72-0.744-2.843-2.475-2.929-2.588
	c-0.085-0.115-0.7-0.931-0.7-1.774s0.443-1.259,0.6-1.43C8.979,8.15,9.164,8.109,9.279,8.109s0.229,0,0.329,0.005
	C9.713,8.12,9.854,8.074,9.993,8.408c0.143,0.343,0.486,1.188,0.529,1.272c0.042,0.086,0.071,0.186,0.013,0.299
	c-0.057,0.115-0.327,0.46-0.428,0.587c-0.076,0.095-0.176,0.178-0.075,0.35c0.1,0.171,0.444,0.734,0.953,1.189
	c0.655,0.584,1.208,0.764,1.379,0.85c0.171,0.085,0.271,0.071,0.371-0.042c0.1-0.114,0.429-0.502,0.543-0.673
	c0.114-0.172,0.229-0.144,0.386-0.087c0.157,0.059,1.001,0.473,1.172,0.559c0.172,0.087,0.285,0.129,0.328,0.201
	C15.208,12.983,15.208,13.327,15.065,13.727z"/>
<path fill="#D7B605" d="M21.276,0H1.654C0.741,0,0,0.741,0,1.654v19.623c0,0.913,0.74,1.653,1.653,1.653h19.623
	c0.914,0,1.654-0.74,1.654-1.653V1.654C22.931,0.741,22.19,0,21.276,0z M11.708,18.14L11.708,18.14h-0.002
	c-1.148,0-2.277-0.287-3.279-0.833L4.789,18.26l0.974-3.555c-0.601-1.04-0.917-2.221-0.916-3.43c0.001-3.782,3.08-6.859,6.862-6.859
	c1.836,0.001,3.559,0.715,4.854,2.012c1.295,1.296,2.008,3.021,2.008,4.853C18.569,15.063,15.49,18.14,11.708,18.14z"/>
</svg>
