<?xml version="1.0" encoding="utf-8"?>
<!-- Generator: Adobe Illustrator 16.0.0, SVG Export Plug-In . SVG Version: 6.00 Build 0)  -->
<!DOCTYPE svg PUBLIC "-//W3C//DTD SVG 1.1//EN" "http://www.w3.org/Graphics/SVG/1.1/DTD/svg11.dtd">
<svg version="1.1" id="Capa_1" xmlns="http://www.w3.org/2000/svg" xmlns:xlink="http://www.w3.org/1999/xlink" x="0px" y="0px"
	 width="23px" height="23px" viewBox="0 0 23 23" enable-background="new 0 0 23 23" xml:space="preserve">
<path fill="#D7B605" d="M10.083,13.675l3.746-2.157L10.083,9.36V13.675z"/>
<path fill="#D7B605" d="M21.373,0H1.661C0.743,0,0,0.744,0,1.661v19.713c0,0.917,0.743,1.661,1.661,1.661h19.712
	c0.917,0,1.662-0.744,1.662-1.661V1.661C23.035,0.744,22.29,0,21.373,0z M18.714,11.529c0,0,0,2.336-0.296,3.462
	c-0.166,0.617-0.652,1.103-1.269,1.269c-1.127,0.296-5.632,0.296-5.632,0.296s-4.494,0-5.632-0.308
	c-0.617-0.166-1.103-0.652-1.268-1.269c-0.298-1.114-0.298-3.462-0.298-3.462s0-2.336,0.298-3.462
	C4.783,7.439,5.28,6.941,5.885,6.775c1.126-0.296,5.632-0.296,5.632-0.296s4.505,0,5.632,0.308c0.616,0.167,1.103,0.652,1.269,1.269
	C18.726,9.182,18.714,11.529,18.714,11.529z"/>
</svg>
